<svg width="19" height="19" viewBox="0 0 19 19" fill="none" xmlns="http://www.w3.org/2000/svg">
<path d="M18.4461 5.75906C18.4351 5.00206 18.2951 4.25106 18.0271 3.54306C17.5581 2.33406 16.6031 1.37806 15.3941 0.910059C14.6951 0.647059 13.9561 0.506059 13.2081 0.490059C12.2461 0.447059 11.9411 0.435059 9.49909 0.435059C7.05709 0.435059 6.74409 0.435059 5.78909 0.490059C5.04209 0.506059 4.30309 0.647059 3.60409 0.910059C2.39509 1.37806 1.43909 2.33406 0.971094 3.54306C0.708094 4.24206 0.566094 4.98106 0.552094 5.72806C0.509094 6.69106 0.496094 6.99606 0.496094 9.43806C0.496094 11.8801 0.496094 12.1921 0.552094 13.1481C0.567094 13.8961 0.708094 14.6341 0.971094 15.3351C1.44009 16.5431 2.39509 17.4991 3.60509 17.9671C4.30109 18.2391 5.04009 18.3931 5.79009 18.4171C6.75309 18.4601 7.05809 18.4731 9.50009 18.4731C11.9421 18.4731 12.2551 18.4731 13.2101 18.4171C13.9571 18.4021 14.6961 18.2611 15.3961 17.9981C16.6051 17.5291 17.5601 16.5731 18.0291 15.3651C18.2921 14.6651 18.4331 13.9271 18.4481 13.1781C18.4911 12.2161 18.5041 11.9111 18.5041 9.46806C18.5021 7.02606 18.5021 6.71606 18.4461 5.75906ZM9.49309 14.0561C6.93909 14.0561 4.87009 11.9871 4.87009 9.43306C4.87009 6.87906 6.93909 4.81006 9.49309 4.81006C12.0451 4.81006 14.1161 6.87906 14.1161 9.43306C14.1161 11.9871 12.0451 14.0561 9.49309 14.0561ZM14.3001 5.71706C13.7031 5.71706 13.2221 5.23506 13.2221 4.63906C13.2221 4.04306 13.7031 3.56106 14.3001 3.56106C14.8951 3.56106 15.3771 4.04306 15.3771 4.63906C15.3771 5.23506 14.8951 5.71706 14.3001 5.71706Z" fill="#9CA3AF"/>
</svg>
